#!OML:ASF I:\golf\golf\golf 2\Subject 1\2002-09-07\Subject1.ASF
:FULLY-SPECIFIED
:DEGREES
328
root -1.72697 16.7382 -2.00314 87.3316 24.7161 23.5587
lowerback 14.5477 3.23213 5.07431
upperback 13.097 4.80208 12.8253
thorax 5.32762 2.17694 10.6922
lowerneck -11.9101 -8.93496 0.650625
upperneck -4.3816 -12.4262 -4.26426
head 0.258266 -6.44293 -1.87936
rclavicle 3.49861e-014 1.38354e-013
rhumerus 64.4819 -11.3437 -35.5144
rradius 20.2565
rwrist 18.7896
rhand -29.6176 14.0432
rfingers 7.12502
rthumb -2.9482 -15.9162
lclavicle 3.49861e-014 1.38354e-013
lhumerus -13.5733 -31.6278 96.4348
lradius 94.146
lwrist 18.4815
lhand -13.5766 31.6234
lfingers 7.12502
lthumb 12.5374 61.2273
rfemur -107.765 -14.3943 6.96239
rtibia 49.0314
rfoot -7.4126 -18.4246
rtoes 23.4257
lfemur -56.1705 -1.6784 -15.4701
ltibia 34.6462
lfoot 12.4531 -10.2907
ltoes -14.293
329
root -1.7232 16.7421 -2.00192 87.2679 24.8572 23.5704
lowerback 14.6349 3.12079 5.19443
upperback 13.0462 4.68775 12.792
thorax 5.25272 2.13346 10.5871
lowerneck -11.7989 -8.9021 0.603851
upperneck -4.39892 -12.3714 -4.12502
head 0.247718 -6.41021 -1.81948
rclavicle 9.54166e-015 1.59028e-015
rhumerus 64.0878 -10.7614 -35.2176
rradius 20.4561
rwrist 18.3118
rhand -29.3689 14.1476
rfingers 7.12502
rthumb -2.70797 -15.815
lclavicle 9.54166e-015 1.59028e-015
lhumerus -13.624 -31.5745 96.3577
lradius 94.6208
lwrist 18.7343
lhand -13.6677 31.6224
lfingers 7.12502
lthumb 12.4495 61.2316
rfemur -107.637 -14.4023 7.10898
rtibia 48.968
rfoot -7.30328 -18.5128
rtoes 23.314
lfemur -56.3262 -1.8404 -15.5295
ltibia 34.6163
lfoot 12.1938 -10.803
ltoes -16.1685
330
root -1.72675 16.7471 -1.9999 87.0366 24.9408 23.2742
lowerback 14.7314 3.15029 5.11318
upperback 13.0726 4.72449 12.7615
thorax 5.21996 2.14703 10.5889
lowerneck -11.802 -8.86017 0.704549
upperneck -4.45692 -12.3301 -4.15454
head 0.223281 -6.39083 -1.84139
rclavicle 5.40694e-014 -9.22361e-014
rhumerus 63.4518 -10.0019 -34.1678
rradius 20.8083
rwrist 17.1543
rhand -29.2272 14.1296
rfingers 7.12502
rthumb -2.57115 -15.8347
lclavicle 5.40694e-014 -9.22361e-014
lhumerus -13.5746 -31.5104 96.2742
lradius 94.9538
lwrist 18.9724
lhand -13.589 31.4407
lfingers 7.12502
lthumb 12.5254 61.0453
rfemur -107.547 -14.0878 7.25157
rtibia 48.8961
rfoot -7.27521 -18.5352
rtoes 22.9292
lfemur -56.4166 -1.78178 -15.5204
ltibia 34.6121
lfoot 12.057 -10.9121
ltoes -16.7451
331
root -1.72758 16.7529 -2.00024 86.841 25.0773 23.0628
lowerback 14.8098 3.13063 5.09428
upperback 13.0941 4.70438 12.7338
thorax 5.20541 2.13707 10.5668
lowerneck -11.9276 -8.79934 0.802423
upperneck -4.45741 -12.259 -4.20378
head 0.237378 -6.35851 -1.87802
rclavicle -6.36111e-014 -3.02153e-014
rhumerus 62.8384 -9.17856 -33
rradius 21.1569
rwrist 15.881
rhand -28.7783 13.9849
rfingers 7.12502
rthumb -2.13758 -15.9842
lclavicle -6.36111e-014 -3.02153e-014
lhumerus -13.4067 -31.3915 96.1442
lradius 95.1417
lwrist 19.269
lhand -13.6382 31.2543
lfingers 7.12502
lthumb 12.478 60.8618
rfemur -107.442 -13.8786 7.39036
rtibia 48.8462
rfoot -7.32945 -18.4432
rtoes 22.9096
lfemur -56.5648 -1.88148 -15.3755
ltibia 34.6544
lfoot 12.1833 -10.6121
ltoes -15.7237
332
root -1.72432 16.7573 -2.00205 86.6257 25.2111 22.8828
lowerback 14.9319 3.0585 5.12953
upperback 13.085 4.63001 12.6773
thorax 5.14696 2.10692 10.4808
lowerneck -12.0698 -8.74194 0.75347
upperneck -4.34744 -12.1622 -4.10266
head 0.308395 -6.30897 -1.84893
rclavicle -5.08889e-014 4.13472e-014
rhumerus 62.298 -8.33025 -32.0807
rradius 21.4727
rwrist 14.8229
rhand -28.1872 13.7283
rfingers 7.12502
rthumb -1.56669 -16.2457
lclavicle -5.08889e-014 4.13472e-014
lhumerus -13.355 -31.2261 95.9965
lradius 95.5258
lwrist 19.6004
lhand -13.8196 31.248
lfingers 7.12502
lthumb 12.303 60.8661
rfemur -107.345 -13.7367 7.64855
rtibia 48.8234
rfoot -7.3777 -18.1932
rtoes 23.1847
lfemur -56.7399 -1.9182 -15.3515
ltibia 34.7513
lfoot 12.1733 -10.5982
ltoes -14.9241
333
root -1.7243 16.7575 -2.00402 86.3402 25.2056 22.6592
lowerback 15.0978 3.02831 4.99611
upperback 13.0567 4.59844 12.5886
thorax 5.02415 2.08942 10.4433
lowerneck -12.1518 -8.72243 0.648873
upperneck -4.22532 -12.1085 -3.95873
head 0.377679 -6.27872 -1.79568
rclavicle 1.01778e-013 4.29375e-014
rhumerus 61.6539 -7.40031 -31.192
rradius 21.8633
rwrist 13.566
rhand -27.6381 13.4364
rfingers 7.12502
rthumb -1.03635 -16.5408
lclavicle 1.01778e-013 4.29375e-014
lhumerus -13.4859 -31.0756 95.9172
lradius 96.0501
lwrist 19.871
lhand -13.9257 31.4377
lfingers 7.12502
lthumb 12.2007 61.0619
rfemur -107.266 -13.5492 7.88653
rtibia 48.8273
rfoot -7.44775 -17.8879
rtoes 23.0714
lfemur -56.8554 -1.77864 -15.5728
ltibia 34.8684
lfoot 12.0387 -10.803
ltoes -14.7482
334
root -1.72424 16.759 -2.00635 86.0691 25.2319 22.4503
lowerback 15.1853 3.02185 4.88275
upperback 13.0205 4.59056 12.5178
thorax 4.93167 2.08376 10.4169
lowerneck -12.2257 -8.70742 0.593906
upperneck -4.15515 -12.0723 -3.87192
head 0.422005 -6.25869 -1.7661
rclavicle -3.18055e-015 9.22361e-014
rhumerus 60.8915 -6.38001 -30.1427
rradius 22.3513
rwrist 11.8395
rhand -27.0853 13.1177
rfingers 7.12502
rthumb -0.502493 -16.8614
lclavicle -3.18055e-015 9.22361e-014
lhumerus -13.5774 -30.9676 95.8809
lradius 96.4211
lwrist 20.1814
lhand -13.9686 31.4272
lfingers 7.12502
lthumb 12.1594 61.0538
rfemur -107.172 -13.3647 8.09589
rtibia 48.8313
rfoot -7.44131 -17.6466
rtoes 22.6881
lfemur -56.9835 -1.6296 -15.7839
ltibia 34.9761
lfoot 11.8756 -10.9539
ltoes -14.8002
335
root -1.71658 16.7667 -2.00996 85.7653 25.4386 22.3198
lowerback 15.2798 2.9521 5.05637
upperback 13.0126 4.52898 12.4777
thorax 4.89814 2.06788 10.2714
lowerneck -12.2585 -8.67971 0.581639
upperneck -4.22748 -12.0334 -3.79338
head 0.410726 -6.2377 -1.73759
rclavicle -2.8625e-014 5.88403e-014
rhumerus 60.2283 -5.47514 -29.387
rradius 22.764
rwrist 10.2314
rhand -26.3917 12.745
rfingers 7.12502
rthumb 0.167463 -17.2346
lclavicle -2.8625e-014 5.88403e-014
lhumerus -13.5141 -30.9089 95.7823
lradius 96.7162
lwrist 20.5263
lhand -14.0587 31.3735
lfingers 7.12502
lthumb 12.0725 61.0052
rfemur -106.903 -13.2451 8.34144
rtibia 48.796
rfoot -7.33142 -17.5012
rtoes 22.2312
lfemur -57.0886 -1.71643 -15.7465
ltibia 35.0641
lfoot 11.7801 -10.8573
ltoes -14.2325
336
root -1.71246 16.7772 -2.01437 85.4448 25.662 22.2459
lowerback 15.4214 2.84703 5.20974
upperback 13.0023 4.42904 12.4412
thorax 4.8401 2.03263 10.1445
lowerneck -12.1978 -8.6322 0.560298
upperneck -4.38735 -11.971 -3.71676
head 0.356905 -6.20312 -1.69845
rclavicle 6.99722e-014 -4.13472e-014
rhumerus 59.6627 -4.64445 -29.0165
rradius 23.1467
rwrist 8.72374
rhand -25.4627 12.2159
rfingers 7.12502
rthumb 1.0647 -17.7612
lclavicle 6.99722e-014 -4.13472e-014
lhumerus -13.4031 -30.8064 95.638
lradius 96.9414
lwrist 20.8511
lhand -14.2279 31.3654
lfingers 7.12502
lthumb 11.9093 61.0067
rfemur -106.556 -13.1546 8.55277
rtibia 48.7136
rfoot -7.34131 -17.4112
rtoes 22.2169
lfemur -57.1813 -1.79127 -15.7409
ltibia 35.0926
lfoot 11.7305 -11.0074
ltoes -14.3174
